<svg width="32" height="32" viewBox="0 0 32 32" version="1.1" xmlns="http://www.w3.org/2000/svg" xmlns:xlink="http://www.w3.org/1999/xlink" xml:space="preserve" xmlns:serif="http://www.serif.com/" style="fill-rule:evenodd;clip-rule:evenodd;stroke-linejoin:round;stroke-miterlimit:2;">
    <path d="M1,21.333C0.448,21.333 0,20.886 0,20.333L0,11.667C0,11.114 0.448,10.667 1,10.667L10.667,10.667L10.667,1C10.667,0.448 11.114,0 11.667,0L20.333,0C20.886,0 21.333,0.448 21.333,1L21.333,10.667L31,10.667C31.552,10.667 32,11.114 32,11.667L32,20.333C32,20.886 31.552,21.333 31,21.333L21.333,21.333L21.333,31C21.333,31.552 20.886,32 20.333,32L11.667,32C11.114,32 10.667,31.552 10.667,31L10.667,21.333L1,21.333ZM19.556,26.667L16,30.222L12.444,26.667L19.556,26.667ZM26.667,12.444L30.222,16L26.667,19.556L26.667,12.444ZM5.333,19.556L1.778,16L5.333,12.444L5.333,19.556ZM12.444,5.333L16,1.778L19.556,5.333L12.444,5.333Z" fill="white" />
</svg>
